<mxfile host="app.diagrams.net" modified="2021-04-27T05:27:36.790Z" agent="5.0 (Windows NT 6.1; Win64; x64) AppleWebKit/537.36 (KHTML, like Gecko) Chrome/90.0.4430.85 Safari/537.36" etag="AfTKZ3oAtm4xX2si-wDP" version="14.6.3" type="github">
  <diagram id="4Icss7t7cPomByZiN6V6" name="Page-1">
    <mxGraphModel dx="2249" dy="832" grid="1" gridSize="10" guides="1" tooltips="1" connect="1" arrows="1" fold="1" page="1" pageScale="1" pageWidth="827" pageHeight="1169" math="0" shadow="0">
      <root>
        <mxCell id="0" />
        <mxCell id="1" parent="0" />
        <mxCell id="FO0Xo_9a9FOr7jtLiBt3-2" value="" style="endArrow=none;dashed=1;html=1;" edge="1" parent="1">
          <mxGeometry width="50" height="50" relative="1" as="geometry">
            <mxPoint x="-90" y="200" as="sourcePoint" />
            <mxPoint x="750" y="200" as="targetPoint" />
          </mxGeometry>
        </mxCell>
        <mxCell id="FO0Xo_9a9FOr7jtLiBt3-13" style="edgeStyle=orthogonalEdgeStyle;rounded=0;orthogonalLoop=1;jettySize=auto;html=1;exitX=0.5;exitY=1;exitDx=0;exitDy=0;" edge="1" parent="1" source="FO0Xo_9a9FOr7jtLiBt3-3" target="FO0Xo_9a9FOr7jtLiBt3-4">
          <mxGeometry relative="1" as="geometry" />
        </mxCell>
        <mxCell id="FO0Xo_9a9FOr7jtLiBt3-3" value="&lt;b&gt;&lt;font style=&quot;font-size: 18px&quot;&gt;定时获取jira基础信息&lt;/font&gt;&lt;/b&gt;" style="rounded=1;whiteSpace=wrap;html=1;" vertex="1" parent="1">
          <mxGeometry x="347" y="310" width="186" height="70" as="geometry" />
        </mxCell>
        <mxCell id="FO0Xo_9a9FOr7jtLiBt3-18" style="edgeStyle=orthogonalEdgeStyle;rounded=0;orthogonalLoop=1;jettySize=auto;html=1;exitX=0;exitY=0.5;exitDx=0;exitDy=0;exitPerimeter=0;entryX=0.5;entryY=1;entryDx=0;entryDy=0;" edge="1" parent="1" source="FO0Xo_9a9FOr7jtLiBt3-4" target="FO0Xo_9a9FOr7jtLiBt3-17">
          <mxGeometry relative="1" as="geometry" />
        </mxCell>
        <mxCell id="FO0Xo_9a9FOr7jtLiBt3-4" value="&lt;b&gt;&lt;font style=&quot;font-size: 18px&quot;&gt;mysql&lt;/font&gt;&lt;/b&gt;" style="shape=cylinder3;whiteSpace=wrap;html=1;boundedLbl=1;backgroundOutline=1;size=15;" vertex="1" parent="1">
          <mxGeometry x="400" y="585" width="80" height="110" as="geometry" />
        </mxCell>
        <mxCell id="FO0Xo_9a9FOr7jtLiBt3-16" style="edgeStyle=orthogonalEdgeStyle;rounded=0;orthogonalLoop=1;jettySize=auto;html=1;exitX=0.5;exitY=1;exitDx=0;exitDy=0;" edge="1" parent="1" source="FO0Xo_9a9FOr7jtLiBt3-6" target="FO0Xo_9a9FOr7jtLiBt3-3">
          <mxGeometry relative="1" as="geometry" />
        </mxCell>
        <mxCell id="FO0Xo_9a9FOr7jtLiBt3-6" value="&lt;font style=&quot;font-size: 18px&quot;&gt;&lt;b&gt;jira基本信息接口&lt;/b&gt;&lt;/font&gt;" style="rounded=0;whiteSpace=wrap;html=1;" vertex="1" parent="1">
          <mxGeometry x="350" y="90" width="180" height="60" as="geometry" />
        </mxCell>
        <mxCell id="FO0Xo_9a9FOr7jtLiBt3-8" value="&lt;font style=&quot;font-size: 24px&quot;&gt;&lt;b&gt;外部数据源&lt;/b&gt;&lt;/font&gt;" style="text;html=1;strokeColor=none;fillColor=none;align=center;verticalAlign=middle;whiteSpace=wrap;rounded=0;" vertex="1" parent="1">
          <mxGeometry x="-80" y="80" width="150" height="60" as="geometry" />
        </mxCell>
        <mxCell id="FO0Xo_9a9FOr7jtLiBt3-9" value="" style="endArrow=none;dashed=1;html=1;" edge="1" parent="1">
          <mxGeometry width="50" height="50" relative="1" as="geometry">
            <mxPoint x="-90" y="520" as="sourcePoint" />
            <mxPoint x="750" y="520" as="targetPoint" />
          </mxGeometry>
        </mxCell>
        <mxCell id="FO0Xo_9a9FOr7jtLiBt3-17" value="&lt;span style=&quot;font-size: 18px&quot;&gt;&lt;b&gt;资源消耗查询接口&lt;/b&gt;&lt;/span&gt;" style="rounded=1;whiteSpace=wrap;html=1;" vertex="1" parent="1">
          <mxGeometry x="110" y="310" width="186" height="70" as="geometry" />
        </mxCell>
        <mxCell id="FO0Xo_9a9FOr7jtLiBt3-19" value="&lt;font style=&quot;font-size: 24px&quot;&gt;&lt;b&gt;持久层&lt;br&gt;&lt;/b&gt;&lt;/font&gt;" style="text;html=1;strokeColor=none;fillColor=none;align=center;verticalAlign=middle;whiteSpace=wrap;rounded=0;" vertex="1" parent="1">
          <mxGeometry x="-70" y="570" width="150" height="60" as="geometry" />
        </mxCell>
        <mxCell id="FO0Xo_9a9FOr7jtLiBt3-20" value="&lt;font style=&quot;font-size: 24px&quot;&gt;&lt;b&gt;数据更新及获取&lt;br&gt;&lt;/b&gt;&lt;/font&gt;" style="text;html=1;strokeColor=none;fillColor=none;align=center;verticalAlign=middle;whiteSpace=wrap;rounded=0;" vertex="1" parent="1">
          <mxGeometry x="-80" y="240" width="170" height="60" as="geometry" />
        </mxCell>
      </root>
    </mxGraphModel>
  </diagram>
</mxfile>
